<svg width="741" height="118" viewBox="0 0 741 118" fill="none" xmlns="http://www.w3.org/2000/svg">
<line y1="46.2892" x2="86.9278" y2="46.2892" stroke="#E07D31" stroke-width="3"/>
<line x1="654.516" y1="110.373" x2="667.299" y2="110.373" stroke="#E07D31" stroke-width="3"/>
<line x1="478.103" y1="110.373" x2="490.887" y2="110.373" stroke="#E07D31" stroke-width="3"/>
<line x1="511.34" y1="110.373" x2="524.124" y2="110.373" stroke="#E07D31" stroke-width="3"/>
<line x1="544.577" y1="110.373" x2="557.361" y2="110.373" stroke="#E07D31" stroke-width="3"/>
<line x1="680.083" y1="110.373" x2="703.093" y2="110.373" stroke="#E07D31" stroke-width="3"/>
<line x1="720.99" y1="110.373" x2="744" y2="110.373" stroke="#E07D31" stroke-width="3"/>
<path d="M104.825 43.0059H166.825L201.979 14.4653H300.412L373.278 92.6876M373.278 92.6876L343.876 117M373.278 92.6876H744" stroke="#E07D31"/>
<path d="M386.742 85.5784L403.741 83.4901L335.049 8.98125L316.285 11.2866L386.742 85.5784Z" fill="#E07D31"/>
<path d="M417.066 85.8675L434.108 84.172L367.146 8.09775L348.99 9.75788L417.066 85.8675Z" fill="#E07D31"/>
<path d="M446.392 85.3079L461.273 81.5153L419.343 30.3888L403.978 33.5522L446.392 85.3079Z" fill="#E07D31"/>
<path d="M473.256 85.3079L488.137 81.5153L446.207 30.3888L430.842 33.5522L473.256 85.3079Z" fill="#E07D31"/>
<path d="M500.12 85.3079L515.001 81.5153L473.071 30.3888L457.706 33.5522L500.12 85.3079Z" fill="#E07D31"/>
<path d="M526.983 85.3079L541.864 81.5153L499.934 30.3888L484.57 33.5522L526.983 85.3079Z" fill="#E07D31"/>
<path d="M553.847 85.3079L568.728 81.5153L526.798 30.3888L511.434 33.5522L553.847 85.3079Z" fill="#E07D31"/>
</svg>
