<svg width="183" height="44" viewBox="0 0 183 44" fill="none" xmlns="http://www.w3.org/2000/svg">
<line y1="16.064" x2="21.3595" y2="16.064" stroke="#E07D31" stroke-width="3"/>
<line x1="160.825" y1="39.6157" x2="163.966" y2="39.6157" stroke="#E07D31" stroke-width="3"/>
<line x1="117.478" y1="39.6157" x2="120.619" y2="39.6157" stroke="#E07D31" stroke-width="3"/>
<line x1="125.644" y1="39.6157" x2="128.785" y2="39.6157" stroke="#E07D31" stroke-width="3"/>
<line x1="133.811" y1="39.6157" x2="136.952" y2="39.6157" stroke="#E07D31" stroke-width="3"/>
<line x1="167.107" y1="39.6157" x2="172.761" y2="39.6157" stroke="#E07D31" stroke-width="3"/>
<line x1="177.158" y1="39.6157" x2="182.812" y2="39.6157" stroke="#E07D31" stroke-width="3"/>
<path d="M25.7571 15.8056H40.9915L49.6295 5.31641H73.816L91.7204 34.0646M91.7204 34.0646L84.4958 42.9998M91.7204 34.0646H182.812" stroke="#E07D31"/>
<path d="M95.0284 31.4517L99.2053 30.6842L82.3268 3.30079L77.7161 4.14804L95.0284 31.4517Z" fill="#E07D31"/>
<path d="M102.48 31.5579L106.667 30.9348L90.2135 2.97609L85.7524 3.58621L102.48 31.5579Z" fill="#E07D31"/>
<path d="M109.686 31.3526L113.342 29.9587L103.039 11.1688L99.2637 12.3314L109.686 31.3526Z" fill="#E07D31"/>
<path d="M116.286 31.3526L119.943 29.9587L109.64 11.1688L105.865 12.3314L116.286 31.3526Z" fill="#E07D31"/>
<path d="M122.887 31.3526L126.544 29.9587L116.241 11.1688L112.466 12.3314L122.887 31.3526Z" fill="#E07D31"/>
<path d="M129.488 31.3526L133.145 29.9587L122.842 11.1688L119.066 12.3314L129.488 31.3526Z" fill="#E07D31"/>
<path d="M136.089 31.3526L139.746 29.9587L129.443 11.1688L125.667 12.3314L136.089 31.3526Z" fill="#E07D31"/>
</svg>
