<svg width="183" height="44" viewBox="0 0 183 44" fill="none" xmlns="http://www.w3.org/2000/svg">
<line y1="-1.5" x2="21.3595" y2="-1.5" transform="matrix(-1 0 0 1 182.812 17.564)" stroke="#E07D31" stroke-width="3"/>
<line y1="-1.5" x2="3.14111" y2="-1.5" transform="matrix(-1 0 0 1 21.9878 41.1157)" stroke="#E07D31" stroke-width="3"/>
<line y1="-1.5" x2="3.14111" y2="-1.5" transform="matrix(-1 0 0 1 65.335 41.1157)" stroke="#E07D31" stroke-width="3"/>
<line y1="-1.5" x2="3.14111" y2="-1.5" transform="matrix(-1 0 0 1 57.1682 41.1157)" stroke="#E07D31" stroke-width="3"/>
<line y1="-1.5" x2="3.14111" y2="-1.5" transform="matrix(-1 0 0 1 49.0013 41.1157)" stroke="#E07D31" stroke-width="3"/>
<line y1="-1.5" x2="5.654" y2="-1.5" transform="matrix(-1 0 0 1 15.7056 41.1157)" stroke="#E07D31" stroke-width="3"/>
<line y1="-1.5" x2="5.654" y2="-1.5" transform="matrix(-1 0 0 1 5.65405 41.1157)" stroke="#E07D31" stroke-width="3"/>
<path d="M157.055 15.8056H141.821L133.183 5.31641H108.997L91.0922 34.0646M91.0922 34.0646L98.3168 42.9998M91.0922 34.0646H7.31945e-05" stroke="#E07D31"/>
<path d="M87.784 31.4517L83.6072 30.6842L100.486 3.30079L105.096 4.14804L87.784 31.4517Z" fill="#E07D31"/>
<path d="M80.3327 31.5579L76.1452 30.9348L92.599 2.97609L97.0601 3.58621L80.3327 31.5579Z" fill="#E07D31"/>
<path d="M73.127 31.3526L69.4705 29.9587L79.7734 11.1688L83.5488 12.3314L73.127 31.3526Z" fill="#E07D31"/>
<path d="M66.5261 31.3526L62.8696 29.9587L73.1725 11.1688L76.9479 12.3314L66.5261 31.3526Z" fill="#E07D31"/>
<path d="M59.9252 31.3526L56.2687 29.9587L66.5715 11.1688L70.3469 12.3314L59.9252 31.3526Z" fill="#E07D31"/>
<path d="M53.3244 31.3526L49.668 29.9587L59.9708 11.1688L63.7462 12.3314L53.3244 31.3526Z" fill="#E07D31"/>
<path d="M46.7234 31.3526L43.067 29.9587L53.3698 11.1688L57.1452 12.3314L46.7234 31.3526Z" fill="#E07D31"/>
</svg>
